<svg width="123" height="140" viewBox="0 0 123 140" xmlns="http://www.w3.org/2000/svg"><path fill-rule="evenodd" d="M87.28 138.46l-.31-121.8c-.82-.83-2.42-.58-3.05-.4l-4.17 1.3a29.13 29.13 0 00-2-4.91C74.8 7 70.49 4.02 65.26 4h-.02c-.34 0-.7.03-1.04.06h-.04l-.47-.54a10.95 10.95 0 00-8.7-3.52C48.23.2 41.5 5.08 36.05 13.75c-3.84 6.1-6.75 13.77-7.58 19.7l-13.3 4.13c-3.9 1.23-4.03 1.35-4.54 5.04C10.23 45.42 0 124.7 0 124.7l85.81 14.86 1.47-1.1zM59.17 5.57A6.9 6.9 0 0055.1 4.5c-10.42.3-19.51 16.6-21.84 27.47l10-3.1 1.77-.55c1.31-6.9 4.6-14.05 8.88-18.66a19.59 19.59 0 015.25-4.09zm-9.2 21.22l14.34-4.44c.04-3.74-.36-9.27-2.23-13.17a14.49 14.49 0 00-4.87 3.55c-3.22 3.46-5.84 8.75-7.23 14.06zm18.82-5.84l6.66-2.06c-1.06-3.46-3.58-9.27-8.7-10.24 1.59 4.12 2 8.88 2.04 12.3z" fill="#95BF47"/><path d="M106.51 25.71c-.5-.04-10.43-.19-10.43-.19s-8.3-8.07-9.12-8.89c-.3-.3-.72-.46-1.15-.53v123.43l37.19-9.25-15.27-103.43c-.1-.7-.71-1.1-1.22-1.14z" fill="#5E8E3E"/><path d="M65.2 44.88l-4.32 16.18s-4.81-2.2-10.53-1.83c-8.37.53-8.46 5.82-8.38 7.14.46 7.24 19.47 8.82 20.54 25.77.84 13.33-7.06 22.46-18.45 23.18-13.67.86-21.2-7.22-21.2-7.22l2.9-12.33s7.57 5.72 13.63 5.34a5.36 5.36 0 005.24-5.76c-.6-9.44-16.08-8.88-17.06-24.4-.82-13.05 7.74-26.27 26.63-27.47 7.28-.46 11 1.4 11 1.4" fill="#fff"/></svg>
